<svg xmlns="http://www.w3.org/2000/svg" viewBox="0 0 635.1 183.13" style=""><path d="M149.06,312a39,39,0,0,1-1.15,9.6,18.47,18.47,0,0,1-11.7,13.15,33.14,33.14,0,0,1-12.25,2,36.85,36.85,0,0,1-11.7-1.65,32.89,32.89,0,0,1-8.1-3.85l5.2-12.1a42.84,42.84,0,0,0,6.2,3,19.41,19.41,0,0,0,7.2,1.3q5.7,0,8.2-2.8c1.67-1.86,2.5-5,2.5-9.4V266h15.6Z" transform="translate(-102.92 -210.15)" fill="#fff" stroke="#1d1d1b" stroke-miterlimit="10" stroke-width="2" class="XJSlNejz_0"></path><path d="M274.15,324.62a14.94,14.94,0,0,0,5.8-.8,3.09,3.09,0,0,0,1.7-3.1c0-1.2-.73-2.25-2.2-3.15a42.56,42.56,0,0,0-6.7-3.05,65.56,65.56,0,0,1-6.35-2.7,18.53,18.53,0,0,1-4.85-3.35,13.41,13.41,0,0,1-3.1-4.64,17.29,17.29,0,0,1-1.1-6.5,14.06,14.06,0,0,1,5.5-11.7q5.5-4.29,15.1-4.3a49,49,0,0,1,9.2.85,43.85,43.85,0,0,1,7,1.85l-2.6,11.6a55.56,55.56,0,0,0-5.65-1.6,30.51,30.51,0,0,0-6.85-.7q-7,0-7,3.9a4,4,0,0,0,.3,1.6,3.44,3.44,0,0,0,1.2,1.35,17.22,17.22,0,0,0,2.45,1.4c1,.51,2.35,1.06,3.95,1.67a61.3,61.3,0,0,1,8.1,3.57,19.48,19.48,0,0,1,5.05,3.81,11.88,11.88,0,0,1,2.6,4.54,20.14,20.14,0,0,1,.75,5.79q0,7.77-5.85,11.77t-16.55,4a46.71,46.71,0,0,1-18.1-3.2l2.5-12.1a49,49,0,0,0,7.8,2.35A37.73,37.73,0,0,0,274.15,324.62Z" transform="translate(-102.92 -210.15)" fill="#fff" stroke="#1d1d1b" stroke-miterlimit="10" stroke-width="2" class="XJSlNejz_1"></path><path d="M305.05,309.42a32,32,0,0,1,2.15-12.24,26.18,26.18,0,0,1,5.65-8.75,23.46,23.46,0,0,1,8-5.3,25.19,25.19,0,0,1,9.35-1.8q11.19,0,17.7,6.85t6.5,20.14c0,.87,0,1.82-.1,2.85s-.14,1.95-.2,2.75h-33.8a9.87,9.87,0,0,0,4.3,7.3q3.8,2.7,10.2,2.7a43.14,43.14,0,0,0,8-.75,30.7,30.7,0,0,0,6.45-1.85l2,12.1a20.71,20.71,0,0,1-3.2,1.2,42.46,42.46,0,0,1-4.45,1.05q-2.46.45-5.25.75a52.67,52.67,0,0,1-5.6.3,33.12,33.12,0,0,1-12.35-2.1,24.1,24.1,0,0,1-8.7-5.75,22.82,22.82,0,0,1-5.1-8.65A34.24,34.24,0,0,1,305.05,309.42Zm35-5.69a15.86,15.86,0,0,0-.65-3.7,9.38,9.38,0,0,0-1.7-3.2,9.21,9.21,0,0,0-2.9-2.3,9.47,9.47,0,0,0-4.35-.9,9.94,9.94,0,0,0-4.3.85,9,9,0,0,0-3,2.25A10,10,0,0,0,321.3,300a20.62,20.62,0,0,0-.95,3.75Z" transform="translate(-102.92 -210.15)" fill="#fff" stroke="#1d1d1b" stroke-miterlimit="10" stroke-width="2" class="XJSlNejz_2"></path><path d="M380.32,335.32q-5.11-10-10.39-23.4t-10-29.19h15.8c.67,2.6,1.45,5.42,2.36,8.45s1.84,6.1,2.81,9.2,1.94,6.11,2.91,9,1.93,5.6,2.87,8c.87-2.4,1.8-5.06,2.81-8s2-5.94,3-9,1.91-6.17,2.81-9.2,1.69-5.85,2.36-8.45h15.41q-4.73,15.79-10,29.19t-10.38,23.4Z" transform="translate(-102.92 -210.15)" fill="#fff" stroke="#1d1d1b" stroke-miterlimit="10" stroke-width="2" class="XJSlNejz_3"></path><path d="M437.25,267.54A8.21,8.21,0,0,1,434.6,274a9.49,9.49,0,0,1-12.5,0,9.17,9.17,0,0,1,0-12.9,9.49,9.49,0,0,1,12.5,0A8.21,8.21,0,0,1,437.25,267.54Zm-1.4,67.78H421V282.73h14.9Z" transform="translate(-102.92 -210.15)" fill="#fff" stroke="#1d1d1b" stroke-miterlimit="10" stroke-width="2" class="XJSlNejz_4"></path><path d="M495.64,265.24q15.5,0,23.8,5.45t8.3,17.84q0,12.5-8.4,18.05t-24,5.54h-4.9v23.2h-15.6V267a88.26,88.26,0,0,1,10.8-1.4Q491.34,265.24,495.64,265.24Zm1,13.29c-1.13,0-2.25,0-3.35.1l-2.85.2v20h4.9q8.1,0,12.2-2.2t4.1-8.2a9.86,9.86,0,0,0-1.05-4.8,8.05,8.05,0,0,0-3-3.05,13.62,13.62,0,0,0-4.75-1.6A39.23,39.23,0,0,0,496.64,278.53Z" transform="translate(-102.92 -210.15)" fill="#fff" stroke="#1d1d1b" stroke-miterlimit="10" stroke-width="2" class="XJSlNejz_5"></path><path d="M534.24,309.42a32.2,32.2,0,0,1,2.15-12.24,26.33,26.33,0,0,1,5.65-8.75,23.55,23.55,0,0,1,8.05-5.3,25.19,25.19,0,0,1,9.35-1.8q11.2,0,17.7,6.85t6.5,20.14c0,.87,0,1.82-.1,2.85s-.13,1.95-.2,2.75h-33.8a9.9,9.9,0,0,0,4.3,7.3q3.79,2.7,10.2,2.7a43.06,43.06,0,0,0,8.05-.75,30.7,30.7,0,0,0,6.45-1.85l2,12.1a20.71,20.71,0,0,1-3.2,1.2,41.87,41.87,0,0,1-4.45,1.05q-2.45.45-5.25.75a52.53,52.53,0,0,1-5.6.3,33.16,33.16,0,0,1-12.35-2.1,24.1,24.1,0,0,1-8.7-5.75,22.82,22.82,0,0,1-5.1-8.65A34.24,34.24,0,0,1,534.24,309.42Zm37.2-45.58L555,277.73l-6.85-6.09,14.15-16.2Zm-2.2,39.89a15.35,15.35,0,0,0-.65-3.7,9.21,9.21,0,0,0-1.7-3.2,9.1,9.1,0,0,0-2.9-2.3,9.47,9.47,0,0,0-4.35-.9,9.94,9.94,0,0,0-4.3.85,9,9,0,0,0-3,2.25,10,10,0,0,0-1.85,3.25,21.47,21.47,0,0,0-1,3.75Z" transform="translate(-102.92 -210.15)" fill="#fff" stroke="#1d1d1b" stroke-miterlimit="10" stroke-width="2" class="XJSlNejz_6"></path><path d="M626.84,295.93c-1.34-.33-2.9-.68-4.7-1.05a28.85,28.85,0,0,0-5.8-.55,26.2,26.2,0,0,0-3.35.25,20,20,0,0,0-3,.55v40.19h-14.9V285.53a91.74,91.74,0,0,1,9.45-2.65,54.61,54.61,0,0,1,12.15-1.25c.8,0,1.76.05,2.9.15s2.26.24,3.4.4,2.26.37,3.4.6a16.93,16.93,0,0,1,2.9.85Z" transform="translate(-102.92 -210.15)" fill="#fff" stroke="#1d1d1b" stroke-miterlimit="10" stroke-width="2" class="XJSlNejz_7"></path><path d="M633.84,309.42A32,32,0,0,1,636,297.18a26.18,26.18,0,0,1,5.65-8.75,23.46,23.46,0,0,1,8.05-5.3,25.19,25.19,0,0,1,9.35-1.8q11.19,0,17.7,6.85t6.5,20.14c0,.87,0,1.82-.1,2.85s-.14,1.95-.2,2.75h-33.8a9.87,9.87,0,0,0,4.3,7.3q3.79,2.7,10.2,2.7a43.14,43.14,0,0,0,8.05-.75,30.7,30.7,0,0,0,6.45-1.85l2,12.1a20.71,20.71,0,0,1-3.2,1.2,42.46,42.46,0,0,1-4.45,1.05q-2.46.45-5.25.75a52.67,52.67,0,0,1-5.6.3,33.12,33.12,0,0,1-12.35-2.1,24.1,24.1,0,0,1-8.7-5.75,22.82,22.82,0,0,1-5.1-8.65A34.24,34.24,0,0,1,633.84,309.42Zm35-5.69a15.86,15.86,0,0,0-.65-3.7,9.38,9.38,0,0,0-1.7-3.2,9.21,9.21,0,0,0-2.9-2.3,9.47,9.47,0,0,0-4.35-.9,9.94,9.94,0,0,0-4.3.85,9,9,0,0,0-3,2.25,10,10,0,0,0-1.85,3.25,20.62,20.62,0,0,0-1,3.75Z" transform="translate(-102.92 -210.15)" fill="#fff" stroke="#1d1d1b" stroke-miterlimit="10" stroke-width="2" class="XJSlNejz_8"></path><path d="M734.24,292.73q-1.82,2-4.86,5.4t-6.57,7.5q-3.51,4.1-7.06,8.59t-6.46,8.7h25.45v12.4h-43.5v-8.8q2.1-3.6,5-7.75t6.2-8.35q3.24-4.2,6.45-8.14t5.9-7.15h-22.4v-12.4h41.8Z" transform="translate(-102.92 -210.15)" fill="#fff" stroke="#1d1d1b" stroke-miterlimit="10" stroke-width="2" class="XJSlNejz_9"></path><path d="M128.6,349.89q9.3,0,14.28,3.27t5,10.71q0,7.5-5,10.83T128.42,378h-2.94v13.91h-9.36V351a53,53,0,0,1,6.48-.84Q126,349.89,128.6,349.89Zm.6,8q-1,0-2,.06l-1.71.12v12h2.94q4.86,0,7.32-1.32t2.46-4.92a5.9,5.9,0,0,0-.63-2.88,4.79,4.79,0,0,0-1.8-1.83,8.11,8.11,0,0,0-2.85-1A23.54,23.54,0,0,0,129.2,357.87Z" transform="translate(-102.92 -210.15)" fill="#fff" stroke="#e84a1d" stroke-miterlimit="10" class="XJSlNejz_10"></path><path d="M166.94,349.89q9.36,0,14.34,3.33t5,10.35a11.7,11.7,0,0,1-2,7.11,13.24,13.24,0,0,1-5.79,4.29q1.26,1.56,2.64,3.56c.92,1.35,1.83,2.74,2.73,4.2s1.77,3,2.61,4.56,1.62,3.13,2.34,4.65H178.31L176,387.8q-1.17-2.1-2.4-4.08T171.15,380c-.81-1.17-1.61-2.25-2.41-3.21h-4.62v15.18h-9.36V351a53.06,53.06,0,0,1,6.33-.84Q164.36,349.89,166.94,349.89Zm.54,8q-1,0-1.83.06l-1.53.12v11.28h2.64q5.28,0,7.56-1.32a4.77,4.77,0,0,0,2.28-4.5,4.58,4.58,0,0,0-2.31-4.35A14.28,14.28,0,0,0,167.48,357.87Z" transform="translate(-102.92 -210.15)" fill="#fff" stroke="#e84a1d" stroke-miterlimit="10" class="XJSlNejz_11"></path><path d="M233.3,371.13a25.49,25.49,0,0,1-1.59,9.38,19.31,19.31,0,0,1-4.35,6.78,17.86,17.86,0,0,1-6.57,4.11,23.87,23.87,0,0,1-8.19,1.38,23.26,23.26,0,0,1-8-1.38,18.49,18.49,0,0,1-6.6-4.11,19.22,19.22,0,0,1-4.44-6.78,25.07,25.07,0,0,1-1.62-9.38,24.36,24.36,0,0,1,1.68-9.39,20,20,0,0,1,4.53-6.81,18.63,18.63,0,0,1,6.6-4.14,22.66,22.66,0,0,1,7.89-1.38,23.26,23.26,0,0,1,8,1.38,18.28,18.28,0,0,1,6.6,4.14,19.53,19.53,0,0,1,4.44,6.81A25.16,25.16,0,0,1,233.3,371.13Zm-31.74,0a18.9,18.9,0,0,0,.75,5.52,12.56,12.56,0,0,0,2.16,4.22,9.56,9.56,0,0,0,3.45,2.73,11.81,11.81,0,0,0,9.33,0,9.49,9.49,0,0,0,3.48-2.73,12.56,12.56,0,0,0,2.16-4.22,18.9,18.9,0,0,0,.75-5.52,19.2,19.2,0,0,0-.75-5.55,12.57,12.57,0,0,0-2.16-4.26,9.49,9.49,0,0,0-3.48-2.73,10.92,10.92,0,0,0-4.65-1,10.59,10.59,0,0,0-4.68,1,9.86,9.86,0,0,0-3.45,2.76,12.57,12.57,0,0,0-2.16,4.26A19,19,0,0,0,201.56,371.13Z" transform="translate(-102.92 -210.15)" fill="#fff" stroke="#e84a1d" stroke-miterlimit="10" class="XJSlNejz_12"></path><path d="M261.38,357.57c-4.37,0-7.51,1.21-9.45,3.63s-2.91,5.73-2.91,9.93a19.83,19.83,0,0,0,.72,5.54A12.21,12.21,0,0,0,251.9,381a9.73,9.73,0,0,0,3.6,2.79,12,12,0,0,0,5,1q1.54,0,2.67-.06a12.52,12.52,0,0,0,1.94-.24V370h9.37v20.57a35.79,35.79,0,0,1-5.41,1.41,47.38,47.38,0,0,1-9.17.75,23.81,23.81,0,0,1-8.49-1.44,17.67,17.67,0,0,1-6.51-4.2,18.75,18.75,0,0,1-4.17-6.78,26.3,26.3,0,0,1-1.47-9.17,24.58,24.58,0,0,1,1.62-9.24,19.76,19.76,0,0,1,4.44-6.81,18.54,18.54,0,0,1,6.63-4.23,22.76,22.76,0,0,1,8.13-1.44,32.84,32.84,0,0,1,5.3.39,33.5,33.5,0,0,1,4.08.9,18.52,18.52,0,0,1,2.82,1.05q1.11.54,1.59.84l-2.7,7.5a24.4,24.4,0,0,0-4.41-1.77A18.74,18.74,0,0,0,261.38,357.57Z" transform="translate(-102.92 -210.15)" fill="#fff" stroke="#e84a1d" stroke-miterlimit="10" class="XJSlNejz_13"></path><path d="M295.39,349.89q9.36,0,14.34,3.33t5,10.35a11.7,11.7,0,0,1-2,7.11,13.24,13.24,0,0,1-5.79,4.29q1.26,1.56,2.64,3.56c.92,1.35,1.83,2.74,2.73,4.2s1.77,3,2.61,4.56,1.62,3.13,2.34,4.65H306.77l-2.32-4.14q-1.17-2.1-2.41-4.08T299.6,380a40,40,0,0,0-2.41-3.21h-4.62v15.18h-9.36V351a53.06,53.06,0,0,1,6.33-.84Q292.81,349.89,295.39,349.89Zm.54,8q-1,0-1.83.06l-1.53.12v11.28h2.64q5.28,0,7.56-1.32a4.77,4.77,0,0,0,2.28-4.5,4.58,4.58,0,0,0-2.31-4.35A14.28,14.28,0,0,0,295.93,357.87Z" transform="translate(-102.92 -210.15)" fill="#fff" stroke="#e84a1d" stroke-miterlimit="10" class="XJSlNejz_14"></path><path d="M353,391.94c-.47-1.44-1-2.93-1.5-4.45l-1.59-4.55H333.67q-.8,2.28-1.58,4.56c-.53,1.53-1,3-1.48,4.44h-9.72q2.36-6.72,4.46-12.42t4.12-10.73q2-5,4-9.57t4.06-8.85h8.88q2,4.32,4,8.85t4,9.57q2,5,4.13,10.73T363,391.94Zm-11.25-32.15c-.21.6-.51,1.43-.91,2.46s-.86,2.24-1.38,3.61-1.09,2.86-1.72,4.49-1.28,3.36-1.94,5.16h11.89c-.63-1.81-1.25-3.53-1.84-5.17s-1.17-3.15-1.7-4.51l-1.42-3.6C342.32,361.19,342,360.38,341.74,359.79Z" transform="translate(-102.92 -210.15)" fill="#fff" stroke="#e84a1d" stroke-miterlimit="10" class="XJSlNejz_15"></path><path d="M379.39,350.37q1.08,2,2.5,4.89t2.94,6.3q1.55,3.39,3,6.93t2.83,6.66l2.83-6.66q1.5-3.54,3-6.93t2.95-6.3q1.42-2.91,2.5-4.89h8.52q.6,4.14,1.11,9.27t.9,10.68c.26,3.7.5,7.4.72,11.12s.41,7.22.57,10.5h-9.12q-.18-6.06-.48-13.2t-.9-14.39c-.72,1.68-1.53,3.54-2.41,5.58s-1.75,4.08-2.62,6.12-1.69,4-2.49,5.84-1.49,3.45-2.05,4.77h-6.54q-.84-2-2.05-4.77t-2.49-5.84q-1.31-3.06-2.62-6.12c-.88-2-1.69-3.9-2.41-5.58q-.6,7.26-.9,14.39t-.48,13.2h-9.12q.24-4.92.57-10.5c.22-3.72.46-7.42.72-11.12s.56-7.26.9-10.68.71-6.51,1.11-9.27Z" transform="translate(-102.92 -210.15)" fill="#fff" stroke="#e84a1d" stroke-miterlimit="10" class="XJSlNejz_16"></path><path d="M450.06,391.94c-.46-1.44-1-2.93-1.49-4.45L447,382.94H430.74q-.78,2.28-1.58,4.56t-1.47,4.44H418q2.34-6.72,4.45-12.42t4.12-10.73q2-5,4-9.57t4.06-8.85h8.87q2.06,4.32,4,8.85t4,9.57q2,5,4.13,10.73t4.46,12.42Zm-11.24-32.15c-.21.6-.52,1.43-.92,2.46s-.86,2.24-1.37,3.61-1.09,2.86-1.73,4.49-1.27,3.36-1.93,5.16h11.89c-.64-1.81-1.25-3.53-1.85-5.17s-1.16-3.15-1.7-4.51-1-2.56-1.41-3.6S439.07,360.38,438.82,359.79Z" transform="translate(-102.92 -210.15)" fill="#fff" stroke="#e84a1d" stroke-miterlimit="10" class="XJSlNejz_17"></path><path d="M501.85,371.13a24.22,24.22,0,0,1-1.68,9.41,17.45,17.45,0,0,1-4.77,6.66,20.35,20.35,0,0,1-7.53,4,34.91,34.91,0,0,1-10,1.32q-2.52,0-5.88-.21a48,48,0,0,1-6.6-.87V350.91a55.14,55.14,0,0,1,6.75-.81q3.51-.21,6-.21a36.41,36.41,0,0,1,9.69,1.2,19.82,19.82,0,0,1,7.47,3.78,16.8,16.8,0,0,1,4.8,6.6A25,25,0,0,1,501.85,371.13Zm-27.06,13.19q.66.06,1.53.09t2.07,0q7,0,10.41-3.54t3.39-9.77q0-6.54-3.24-9.9t-10.26-3.36l-2,0a18.71,18.71,0,0,0-1.92.15Z" transform="translate(-102.92 -210.15)" fill="#fff" stroke="#e84a1d" stroke-miterlimit="10" class="XJSlNejz_18"></path><path d="M549.25,371.13a25.49,25.49,0,0,1-1.59,9.38,19.31,19.31,0,0,1-4.35,6.78,17.86,17.86,0,0,1-6.57,4.11,23.87,23.87,0,0,1-8.19,1.38,23.26,23.26,0,0,1-8-1.38,18.49,18.49,0,0,1-6.6-4.11,19.22,19.22,0,0,1-4.44-6.78,25.07,25.07,0,0,1-1.62-9.38,24.36,24.36,0,0,1,1.68-9.39,20,20,0,0,1,4.53-6.81,18.63,18.63,0,0,1,6.6-4.14,22.66,22.66,0,0,1,7.89-1.38,23.26,23.26,0,0,1,8,1.38,18.28,18.28,0,0,1,6.6,4.14,19.53,19.53,0,0,1,4.44,6.81A25.16,25.16,0,0,1,549.25,371.13Zm-31.74,0a18.9,18.9,0,0,0,.75,5.52,12.56,12.56,0,0,0,2.16,4.22,9.56,9.56,0,0,0,3.45,2.73,11.81,11.81,0,0,0,9.33,0,9.49,9.49,0,0,0,3.48-2.73,12.56,12.56,0,0,0,2.16-4.22,18.9,18.9,0,0,0,.75-5.52,19.2,19.2,0,0,0-.75-5.55,12.57,12.57,0,0,0-2.16-4.26,9.49,9.49,0,0,0-3.48-2.73,10.92,10.92,0,0,0-4.65-1,10.59,10.59,0,0,0-4.68,1,9.86,9.86,0,0,0-3.45,2.76,12.57,12.57,0,0,0-2.16,4.26A19,19,0,0,0,517.51,371.13Z" transform="translate(-102.92 -210.15)" fill="#fff" stroke="#e84a1d" stroke-miterlimit="10" class="XJSlNejz_19"></path><path d="M569.23,349.89q9.35,0,14.34,3.33t5,10.35a11.7,11.7,0,0,1-2,7.11,13.27,13.27,0,0,1-5.78,4.29q1.25,1.56,2.63,3.56c.92,1.35,1.83,2.74,2.74,4.2s1.76,3,2.61,4.56,1.61,3.13,2.34,4.65H580.6l-2.32-4.14q-1.17-2.1-2.41-4.08T573.43,380c-.8-1.17-1.6-2.25-2.4-3.21h-4.62v15.18h-9.36V351a52.79,52.79,0,0,1,6.33-.84Q566.65,349.89,569.23,349.89Zm.53,8c-.67,0-1.28,0-1.82.06l-1.53.12v11.28h2.64c3.51,0,6-.44,7.56-1.32a4.76,4.76,0,0,0,2.27-4.5,4.59,4.59,0,0,0-2.3-4.35A14.33,14.33,0,0,0,569.76,357.87Z" transform="translate(-102.92 -210.15)" fill="#fff" stroke="#e84a1d" stroke-miterlimit="10" class="XJSlNejz_20"></path><path d="M639.4,354.81q.72,2.46,1.59,5.55t1.86,6.39q1,3.3,2,6.6c.67,2.2,1.33,4.23,2,6.11.52-2,1.06-4.25,1.6-6.65s1.05-4.88,1.54-7.44.95-5.11,1.41-7.65.9-5,1.3-7.35h9.72q-2.11,10.44-4.86,21.18t-5.94,20.39H643q-2.1-5.76-4.07-12.09t-3.9-12.68q-1.92,6.36-3.84,12.68t-4,12.09h-8.55q-3.2-9.66-5.94-20.39t-4.85-21.18H618c.4,2.36.85,4.81,1.33,7.35s1,5.09,1.51,7.65,1,5,1.59,7.44,1.1,4.61,1.66,6.65c.72-1.95,1.43-4,2.11-6.23s1.34-4.4,2-6.6,1.23-4.32,1.77-6.36,1-3.86,1.48-5.46Z" transform="translate(-102.92 -210.15)" fill="#fff" stroke="#e84a1d" stroke-miterlimit="10" class="XJSlNejz_21"></path><path d="M668.34,391.94V350.37h28.08v7.86H677.7v8.16h16.62v7.68H677.7v10h20.1v7.86Z" transform="translate(-102.92 -210.15)" fill="#fff" stroke="#e84a1d" stroke-miterlimit="10" class="XJSlNejz_22"></path><path d="M718.56,392.48q-3.42,0-6.81-.21a48.13,48.13,0,0,1-7-1V351a59.87,59.87,0,0,1,6.3-.81q3.42-.27,6.36-.27a43.31,43.31,0,0,1,7.29.57,17.27,17.27,0,0,1,5.73,2,10.22,10.22,0,0,1,3.75,3.63,10.61,10.61,0,0,1,1.35,5.55q0,5-4.8,7.86,4,1.5,5.4,4.08a11.72,11.72,0,0,1,1.44,5.81q0,6.54-4.77,9.84T718.56,392.48Zm-4.74-25.79h4.56q4.32,0,6.18-1.11a3.84,3.84,0,0,0,1.86-3.57,3.67,3.67,0,0,0-1.92-3.54,12.34,12.34,0,0,0-5.64-1l-2.58,0q-1.38,0-2.46.15Zm0,7.14v10.73q1,.12,2.22.18t2.64.06a16.21,16.21,0,0,0,6.78-1.2,4.45,4.45,0,0,0,2.58-4.44,4.34,4.34,0,0,0-2.16-4.1,12.65,12.65,0,0,0-6.18-1.23Z" transform="translate(-102.92 -210.15)" fill="#fff" stroke="#e84a1d" stroke-miterlimit="10" class="XJSlNejz_23"></path><path d="M187.41,219.78a9.84,9.84,0,0,1,19.51,2.52" transform="translate(-102.92 -210.15)" fill="#fff" stroke="#1d1d1b" stroke-miterlimit="10" stroke-width="2" class="XJSlNejz_24"></path><path d="M245.28,275.63a9.1,9.1,0,0,1-.47,8.88,9.84,9.84,0,0,1-17,0" transform="translate(-102.92 -210.15)" fill="#fff" stroke="#1d1d1b" stroke-miterlimit="10" stroke-width="2" class="XJSlNejz_25"></path><path d="M225.06,215.34a9.84,9.84,0,0,1,16.12,11.29" transform="translate(-102.92 -210.15)" fill="#fff" stroke="#1d1d1b" stroke-miterlimit="10" stroke-width="2" class="XJSlNejz_26"></path><path d="M248.72,309.7A36.28,36.28,0,0,1,217,333.34a38.29,38.29,0,0,1-35.89-59" transform="translate(-102.92 -210.15)" fill="#fff" stroke="#1d1d1b" stroke-miterlimit="10" stroke-width="2" class="XJSlNejz_27"></path><path d="M220.48,257.65a33.28,33.28,0,0,1,24.79,18" transform="translate(-102.92 -210.15)" fill="#fff" stroke="#1d1d1b" stroke-miterlimit="10" stroke-width="2" class="XJSlNejz_28"></path><path d="M229.78,304.29a10.47,10.47,0,0,1,7.32-7.05,9.85,9.85,0,0,1,11.81,7.37,10,10,0,0,1-.18,5.09" transform="translate(-102.92 -210.15)" fill="#fff" stroke="#1d1d1b" stroke-miterlimit="10" stroke-width="2" class="XJSlNejz_29"></path><path d="M229.78,304.29c-3.54,7.6-11.38,10.42-19.6,8.78a18.19,18.19,0,0,1-1.54-35.3c8-2.34,14.94-.51,19.13,6.74" transform="translate(-102.92 -210.15)" fill="#fff" stroke="#1d1d1b" stroke-miterlimit="10" stroke-width="2" class="XJSlNejz_30"></path><path d="M225.06,215.34l-44,59" transform="translate(-102.92 -210.15)" fill="#fff" stroke="#1d1d1b" stroke-miterlimit="10" stroke-width="2" class="XJSlNejz_31"></path><path d="M220.48,257.65l20.7-31" transform="translate(-102.92 -210.15)" fill="#fff" stroke="#1d1d1b" stroke-miterlimit="10" stroke-width="2" class="XJSlNejz_32"></path><path d="M175.56,288.09l11.85-68.31" transform="translate(-102.92 -210.15)" fill="#fff" stroke="#1d1d1b" stroke-miterlimit="10" stroke-width="2" class="XJSlNejz_33"></path><path d="M203.49,244.29l3.44-22" transform="translate(-102.92 -210.15)" fill="#fff" stroke="#1d1d1b" stroke-miterlimit="10" stroke-width="2" class="XJSlNejz_34"></path><path d="M156.65,256.36a9.84,9.84,0,0,1,17.95-8.07" transform="translate(-102.92 -210.15)" fill="#fff" stroke="#1d1d1b" stroke-miterlimit="10" stroke-width="2" class="XJSlNejz_35"></path><path d="M176.77,306.89l-20.12-50.53" transform="translate(-102.92 -210.15)" fill="#fff" stroke="#1d1d1b" stroke-miterlimit="10" stroke-width="2" class="XJSlNejz_36"></path><path d="M180.16,261.59l-5.56-13.3" transform="translate(-102.92 -210.15)" fill="#fff" stroke="#1d1d1b" stroke-miterlimit="10" stroke-width="2" class="XJSlNejz_37"></path><style data-made-with="vivus-instant">.XJSlNejz_0{stroke-dasharray:215 217;stroke-dashoffset:216;animation:XJSlNejz_draw_0 7200ms linear 0ms infinite,XJSlNejz_fade 7200ms linear 0ms infinite;}.XJSlNejz_1{stroke-dasharray:241 243;stroke-dashoffset:242;animation:XJSlNejz_draw_1 7200ms linear 0ms infinite,XJSlNejz_fade 7200ms linear 0ms infinite;}.XJSlNejz_2{stroke-dasharray:284 286;stroke-dashoffset:285;animation:XJSlNejz_draw_2 7200ms linear 0ms infinite,XJSlNejz_fade 7200ms linear 0ms infinite;}.XJSlNejz_3{stroke-dasharray:230 232;stroke-dashoffset:231;animation:XJSlNejz_draw_3 7200ms linear 0ms infinite,XJSlNejz_fade 7200ms linear 0ms infinite;}.XJSlNejz_4{stroke-dasharray:191 193;stroke-dashoffset:192;animation:XJSlNejz_draw_4 7200ms linear 0ms infinite,XJSlNejz_fade 7200ms linear 0ms infinite;}.XJSlNejz_5{stroke-dasharray:298 300;stroke-dashoffset:299;animation:XJSlNejz_draw_5 7200ms linear 0ms infinite,XJSlNejz_fade 7200ms linear 0ms infinite;}.XJSlNejz_6{stroke-dasharray:349 351;stroke-dashoffset:350;animation:XJSlNejz_draw_6 7200ms linear 0ms infinite,XJSlNejz_fade 7200ms linear 0ms infinite;}.XJSlNejz_7{stroke-dasharray:170 172;stroke-dashoffset:171;animation:XJSlNejz_draw_7 7200ms linear 0ms infinite,XJSlNejz_fade 7200ms linear 0ms infinite;}.XJSlNejz_8{stroke-dasharray:284 286;stroke-dashoffset:285;animation:XJSlNejz_draw_8 7200ms linear 0ms infinite,XJSlNejz_fade 7200ms linear 0ms infinite;}.XJSlNejz_9{stroke-dasharray:256 258;stroke-dashoffset:257;animation:XJSlNejz_draw_9 7200ms linear 0ms infinite,XJSlNejz_fade 7200ms linear 0ms infinite;}.XJSlNejz_10{stroke-dasharray:179 181;stroke-dashoffset:180;animation:XJSlNejz_draw_10 7200ms linear 0ms infinite,XJSlNejz_fade 7200ms linear 0ms infinite;}.XJSlNejz_11{stroke-dasharray:216 218;stroke-dashoffset:217;animation:XJSlNejz_draw_11 7200ms linear 0ms infinite,XJSlNejz_fade 7200ms linear 0ms infinite;}.XJSlNejz_12{stroke-dasharray:214 216;stroke-dashoffset:215;animation:XJSlNejz_draw_12 7200ms linear 0ms infinite,XJSlNejz_fade 7200ms linear 0ms infinite;}.XJSlNejz_13{stroke-dasharray:206 208;stroke-dashoffset:207;animation:XJSlNejz_draw_13 7200ms linear 0ms infinite,XJSlNejz_fade 7200ms linear 0ms infinite;}.XJSlNejz_14{stroke-dasharray:216 218;stroke-dashoffset:217;animation:XJSlNejz_draw_14 7200ms linear 0ms infinite,XJSlNejz_fade 7200ms linear 0ms infinite;}.XJSlNejz_15{stroke-dasharray:199 201;stroke-dashoffset:200;animation:XJSlNejz_draw_15 7200ms linear 0ms infinite,XJSlNejz_fade 7200ms linear 0ms infinite;}.XJSlNejz_16{stroke-dasharray:285 287;stroke-dashoffset:286;animation:XJSlNejz_draw_16 7200ms linear 0ms infinite,XJSlNejz_fade 7200ms linear 0ms infinite;}.XJSlNejz_17{stroke-dasharray:199 201;stroke-dashoffset:200;animation:XJSlNejz_draw_17 7200ms linear 0ms infinite,XJSlNejz_fade 7200ms linear 0ms infinite;}.XJSlNejz_18{stroke-dasharray:217 219;stroke-dashoffset:218;animation:XJSlNejz_draw_18 7200ms linear 0ms infinite,XJSlNejz_fade 7200ms linear 0ms infinite;}.XJSlNejz_19{stroke-dasharray:214 216;stroke-dashoffset:215;animation:XJSlNejz_draw_19 7200ms linear 0ms infinite,XJSlNejz_fade 7200ms linear 0ms infinite;}.XJSlNejz_20{stroke-dasharray:216 218;stroke-dashoffset:217;animation:XJSlNejz_draw_20 7200ms linear 0ms infinite,XJSlNejz_fade 7200ms linear 0ms infinite;}.XJSlNejz_21{stroke-dasharray:294 296;stroke-dashoffset:295;animation:XJSlNejz_draw_21 7200ms linear 0ms infinite,XJSlNejz_fade 7200ms linear 0ms infinite;}.XJSlNejz_22{stroke-dasharray:213 215;stroke-dashoffset:214;animation:XJSlNejz_draw_22 7200ms linear 0ms infinite,XJSlNejz_fade 7200ms linear 0ms infinite;}.XJSlNejz_23{stroke-dasharray:225 227;stroke-dashoffset:226;animation:XJSlNejz_draw_23 7200ms linear 0ms infinite,XJSlNejz_fade 7200ms linear 0ms infinite;}.XJSlNejz_24{stroke-dasharray:31 33;stroke-dashoffset:32;animation:XJSlNejz_draw_24 7200ms linear 0ms infinite,XJSlNejz_fade 7200ms linear 0ms infinite;}.XJSlNejz_25{stroke-dasharray:30 32;stroke-dashoffset:31;animation:XJSlNejz_draw_25 7200ms linear 0ms infinite,XJSlNejz_fade 7200ms linear 0ms infinite;}.XJSlNejz_26{stroke-dasharray:31 33;stroke-dashoffset:32;animation:XJSlNejz_draw_26 7200ms linear 0ms infinite,XJSlNejz_fade 7200ms linear 0ms infinite;}.XJSlNejz_27{stroke-dasharray:128 130;stroke-dashoffset:129;animation:XJSlNejz_draw_27 7200ms linear 0ms infinite,XJSlNejz_fade 7200ms linear 0ms infinite;}.XJSlNejz_28{stroke-dasharray:32 34;stroke-dashoffset:33;animation:XJSlNejz_draw_28 7200ms linear 0ms infinite,XJSlNejz_fade 7200ms linear 0ms infinite;}.XJSlNejz_29{stroke-dasharray:32 34;stroke-dashoffset:33;animation:XJSlNejz_draw_29 7200ms linear 0ms infinite,XJSlNejz_fade 7200ms linear 0ms infinite;}.XJSlNejz_30{stroke-dasharray:94 96;stroke-dashoffset:95;animation:XJSlNejz_draw_30 7200ms linear 0ms infinite,XJSlNejz_fade 7200ms linear 0ms infinite;}.XJSlNejz_31{stroke-dasharray:74 76;stroke-dashoffset:75;animation:XJSlNejz_draw_31 7200ms linear 0ms infinite,XJSlNejz_fade 7200ms linear 0ms infinite;}.XJSlNejz_32{stroke-dasharray:38 40;stroke-dashoffset:39;animation:XJSlNejz_draw_32 7200ms linear 0ms infinite,XJSlNejz_fade 7200ms linear 0ms infinite;}.XJSlNejz_33{stroke-dasharray:70 72;stroke-dashoffset:71;animation:XJSlNejz_draw_33 7200ms linear 0ms infinite,XJSlNejz_fade 7200ms linear 0ms infinite;}.XJSlNejz_34{stroke-dasharray:23 25;stroke-dashoffset:24;animation:XJSlNejz_draw_34 7200ms linear 0ms infinite,XJSlNejz_fade 7200ms linear 0ms infinite;}.XJSlNejz_35{stroke-dasharray:31 33;stroke-dashoffset:32;animation:XJSlNejz_draw_35 7200ms linear 0ms infinite,XJSlNejz_fade 7200ms linear 0ms infinite;}.XJSlNejz_36{stroke-dasharray:55 57;stroke-dashoffset:56;animation:XJSlNejz_draw_36 7200ms linear 0ms infinite,XJSlNejz_fade 7200ms linear 0ms infinite;}.XJSlNejz_37{stroke-dasharray:15 17;stroke-dashoffset:16;animation:XJSlNejz_draw_37 7200ms linear 0ms infinite,XJSlNejz_fade 7200ms linear 0ms infinite;}@keyframes XJSlNejz_draw{100%{stroke-dashoffset:0;}}@keyframes XJSlNejz_fade{0%{stroke-opacity:1;}94.44444444444444%{stroke-opacity:1;}100%{stroke-opacity:0;}}@keyframes XJSlNejz_draw_0{11.11111111111111%{stroke-dashoffset: 216}35.41666666666667%{ stroke-dashoffset: 0;}100%{ stroke-dashoffset: 0;}}@keyframes XJSlNejz_draw_1{11.58033033033033%{stroke-dashoffset: 242}35.88588588588589%{ stroke-dashoffset: 0;}100%{ stroke-dashoffset: 0;}}@keyframes XJSlNejz_draw_2{12.04954954954955%{stroke-dashoffset: 285}36.3551051051051%{ stroke-dashoffset: 0;}100%{ stroke-dashoffset: 0;}}@keyframes XJSlNejz_draw_3{12.518768768768767%{stroke-dashoffset: 231}36.82432432432432%{ stroke-dashoffset: 0;}100%{ stroke-dashoffset: 0;}}@keyframes XJSlNejz_draw_4{12.987987987987987%{stroke-dashoffset: 192}37.29354354354354%{ stroke-dashoffset: 0;}100%{ stroke-dashoffset: 0;}}@keyframes XJSlNejz_draw_5{13.457207207207208%{stroke-dashoffset: 299}37.76276276276276%{ stroke-dashoffset: 0;}100%{ stroke-dashoffset: 0;}}@keyframes XJSlNejz_draw_6{13.926426426426428%{stroke-dashoffset: 350}38.231981981981974%{ stroke-dashoffset: 0;}100%{ stroke-dashoffset: 0;}}@keyframes XJSlNejz_draw_7{14.395645645645644%{stroke-dashoffset: 171}38.7012012012012%{ stroke-dashoffset: 0;}100%{ stroke-dashoffset: 0;}}@keyframes XJSlNejz_draw_8{14.864864864864863%{stroke-dashoffset: 285}39.17042042042041%{ stroke-dashoffset: 0;}100%{ stroke-dashoffset: 0;}}@keyframes XJSlNejz_draw_9{15.334084084084084%{stroke-dashoffset: 257}39.63963963963964%{ stroke-dashoffset: 0;}100%{ stroke-dashoffset: 0;}}@keyframes XJSlNejz_draw_10{15.803303303303304%{stroke-dashoffset: 180}40.10885885885886%{ stroke-dashoffset: 0;}100%{ stroke-dashoffset: 0;}}@keyframes XJSlNejz_draw_11{16.27252252252252%{stroke-dashoffset: 217}40.57807807807808%{ stroke-dashoffset: 0;}100%{ stroke-dashoffset: 0;}}@keyframes XJSlNejz_draw_12{16.74174174174174%{stroke-dashoffset: 215}41.0472972972973%{ stroke-dashoffset: 0;}100%{ stroke-dashoffset: 0;}}@keyframes XJSlNejz_draw_13{17.21096096096096%{stroke-dashoffset: 207}41.51651651651652%{ stroke-dashoffset: 0;}100%{ stroke-dashoffset: 0;}}@keyframes XJSlNejz_draw_14{17.68018018018018%{stroke-dashoffset: 217}41.98573573573574%{ stroke-dashoffset: 0;}100%{ stroke-dashoffset: 0;}}@keyframes XJSlNejz_draw_15{18.1493993993994%{stroke-dashoffset: 200}42.45495495495496%{ stroke-dashoffset: 0;}100%{ stroke-dashoffset: 0;}}@keyframes XJSlNejz_draw_16{18.61861861861862%{stroke-dashoffset: 286}42.924174174174176%{ stroke-dashoffset: 0;}100%{ stroke-dashoffset: 0;}}@keyframes XJSlNejz_draw_17{19.087837837837835%{stroke-dashoffset: 200}43.393393393393396%{ stroke-dashoffset: 0;}100%{ stroke-dashoffset: 0;}}@keyframes XJSlNejz_draw_18{19.557057057057055%{stroke-dashoffset: 218}43.862612612612615%{ stroke-dashoffset: 0;}100%{ stroke-dashoffset: 0;}}@keyframes XJSlNejz_draw_19{20.026276276276274%{stroke-dashoffset: 215}44.33183183183183%{ stroke-dashoffset: 0;}100%{ stroke-dashoffset: 0;}}@keyframes XJSlNejz_draw_20{20.495495495495494%{stroke-dashoffset: 217}44.801051051051054%{ stroke-dashoffset: 0;}100%{ stroke-dashoffset: 0;}}@keyframes XJSlNejz_draw_21{20.964714714714717%{stroke-dashoffset: 295}45.270270270270274%{ stroke-dashoffset: 0;}100%{ stroke-dashoffset: 0;}}@keyframes XJSlNejz_draw_22{21.433933933933936%{stroke-dashoffset: 214}45.73948948948949%{ stroke-dashoffset: 0;}100%{ stroke-dashoffset: 0;}}@keyframes XJSlNejz_draw_23{21.903153153153156%{stroke-dashoffset: 226}46.20870870870871%{ stroke-dashoffset: 0;}100%{ stroke-dashoffset: 0;}}@keyframes XJSlNejz_draw_24{22.372372372372375%{stroke-dashoffset: 32}46.677927927927925%{ stroke-dashoffset: 0;}100%{ stroke-dashoffset: 0;}}@keyframes XJSlNejz_draw_25{22.84159159159159%{stroke-dashoffset: 31}47.147147147147145%{ stroke-dashoffset: 0;}100%{ stroke-dashoffset: 0;}}@keyframes XJSlNejz_draw_26{23.31081081081081%{stroke-dashoffset: 32}47.616366366366364%{ stroke-dashoffset: 0;}100%{ stroke-dashoffset: 0;}}@keyframes XJSlNejz_draw_27{23.780030030030026%{stroke-dashoffset: 129}48.085585585585584%{ stroke-dashoffset: 0;}100%{ stroke-dashoffset: 0;}}@keyframes XJSlNejz_draw_28{24.249249249249246%{stroke-dashoffset: 33}48.5548048048048%{ stroke-dashoffset: 0;}100%{ stroke-dashoffset: 0;}}@keyframes XJSlNejz_draw_29{24.718468468468465%{stroke-dashoffset: 33}49.02402402402402%{ stroke-dashoffset: 0;}100%{ stroke-dashoffset: 0;}}@keyframes XJSlNejz_draw_30{25.18768768768769%{stroke-dashoffset: 95}49.49324324324324%{ stroke-dashoffset: 0;}100%{ stroke-dashoffset: 0;}}@keyframes XJSlNejz_draw_31{25.656906906906908%{stroke-dashoffset: 75}49.96246246246246%{ stroke-dashoffset: 0;}100%{ stroke-dashoffset: 0;}}@keyframes XJSlNejz_draw_32{26.126126126126124%{stroke-dashoffset: 39}50.431681681681674%{ stroke-dashoffset: 0;}100%{ stroke-dashoffset: 0;}}@keyframes XJSlNejz_draw_33{26.595345345345343%{stroke-dashoffset: 71}50.9009009009009%{ stroke-dashoffset: 0;}100%{ stroke-dashoffset: 0;}}@keyframes XJSlNejz_draw_34{27.064564564564563%{stroke-dashoffset: 24}51.37012012012011%{ stroke-dashoffset: 0;}100%{ stroke-dashoffset: 0;}}@keyframes XJSlNejz_draw_35{27.533783783783782%{stroke-dashoffset: 32}51.83933933933934%{ stroke-dashoffset: 0;}100%{ stroke-dashoffset: 0;}}@keyframes XJSlNejz_draw_36{28.003003003003002%{stroke-dashoffset: 56}52.30855855855856%{ stroke-dashoffset: 0;}100%{ stroke-dashoffset: 0;}}@keyframes XJSlNejz_draw_37{28.47222222222222%{stroke-dashoffset: 16}52.77777777777778%{ stroke-dashoffset: 0;}100%{ stroke-dashoffset: 0;}}</style></svg>